<svg width="40" height="40" viewBox="0 0 40 40" fill="none" xmlns="http://www.w3.org/2000/svg">
<path d="M40 27.3425C40 25.8167 39.0173 24.5281 37.6562 24.0427V11.9026L40 10.9362L20 2.91171L0 10.9362L20 18.9609L35.3125 12.8437V24.0427C33.9514 24.5281 32.9688 25.8167 32.9688 27.3425C32.9688 28.7394 33.7938 29.9384 34.9766 30.5051L33.0295 36.3467L35.2519 37.0883L36.4844 33.3907L37.7169 37.0883L39.9393 36.3467L37.9921 30.5051C39.175 29.9385 40 28.7395 40 27.3425Z" fill="#B68F64"/>
<path d="M20 21.4866L9.45312 17.2516V20.3112C9.45312 23.6518 13.9873 26.1706 20 26.1706C26.0127 26.1706 30.5469 23.6518 30.5469 20.3112V17.2516L20 21.4866Z" fill="#B68F64"/>
</svg>
