<svg width="53" height="53" viewBox="0 0 53 53" fill="none" xmlns="http://www.w3.org/2000/svg">
<path fill-rule="evenodd" clip-rule="evenodd" d="M39.0094 17.1989C38.7468 16.5186 38.3448 15.9008 37.8292 15.3852C37.3136 14.8695 36.6958 14.4675 36.0155 14.2049C35.4609 13.9894 34.625 13.7331 33.0873 13.6621C31.4247 13.5859 30.9253 13.5701 26.7143 13.5701C22.5033 13.5701 22.0039 13.5859 20.3413 13.6621C18.8036 13.7331 17.969 13.9894 17.4131 14.2049C16.7328 14.4675 16.115 14.8695 15.5994 15.3852C15.0838 15.9008 14.6818 16.5186 14.4192 17.1989C14.2036 17.7548 13.9473 18.5894 13.8763 20.1271C13.8014 21.7897 13.7844 22.2891 13.7844 26.5001C13.7844 30.711 13.8014 31.2105 13.8763 32.873C13.9473 34.4108 14.2036 35.2466 14.4192 35.8013C14.6818 36.4815 15.0838 37.0993 15.5994 37.615C16.115 38.1306 16.7328 38.5326 17.4131 38.7952C17.969 39.0108 18.8036 39.267 20.3413 39.338C22.0039 39.4142 22.5033 39.43 26.7143 39.43C30.9253 39.43 31.4247 39.4142 33.0873 39.338C34.625 39.267 35.4609 39.0108 36.0155 38.7952C36.6958 38.5326 37.3136 38.1306 37.8292 37.615C38.3448 37.0993 38.7468 36.4815 39.0094 35.8013C39.225 35.2466 39.4826 34.4108 39.5523 32.873C39.6285 31.2105 39.6442 30.711 39.6442 26.5001C39.6442 22.2891 39.6285 21.7897 39.5523 20.1271C39.4826 18.5894 39.225 17.7548 39.0094 17.1989ZM26.7143 34.5987C25.1125 34.5987 23.5467 34.1237 22.2149 33.2338C20.8831 32.3439 19.8451 31.0791 19.2321 29.5993C18.6192 28.1195 18.4588 26.4911 18.7713 24.9201C19.0838 23.3491 19.8551 21.9061 20.9877 20.7735C22.1203 19.6409 23.5634 18.8695 25.1343 18.5571C26.7053 18.2446 28.3337 18.4049 29.8135 19.0179C31.2934 19.6309 32.5582 20.6689 33.4481 22.0007C34.338 23.3325 34.8129 24.8983 34.8129 26.5001C34.8129 28.648 33.9597 30.7079 32.4409 32.2267C30.9221 33.7455 28.8622 34.5987 26.7143 34.5987ZM35.1336 19.9733C34.7593 19.9733 34.3934 19.8623 34.0821 19.6544C33.7709 19.4464 33.5284 19.1508 33.3851 18.805C33.2419 18.4592 33.2044 18.0787 33.2774 17.7115C33.3504 17.3444 33.5307 17.0072 33.7953 16.7425C34.06 16.4778 34.3972 16.2976 34.7644 16.2245C35.1315 16.1515 35.5121 16.189 35.8579 16.3322C36.2037 16.4755 36.4993 16.7181 36.7072 17.0293C36.9152 17.3405 37.0262 17.7064 37.0262 18.0808C37.0262 18.5827 36.8268 19.0641 36.4718 19.419C36.1169 19.7739 35.6356 19.9733 35.1336 19.9733ZM31.9714 26.5001C31.9714 27.5398 31.6631 28.5562 31.0855 29.4208C30.5078 30.2853 29.6867 30.9591 28.7261 31.357C27.7655 31.7549 26.7085 31.859 25.6887 31.6562C24.6689 31.4534 23.7322 30.9527 22.997 30.2174C22.2617 29.4822 21.761 28.5455 21.5582 27.5257C21.3553 26.5059 21.4594 25.4489 21.8573 24.4882C22.2553 23.5276 22.9291 22.7066 23.7936 22.1289C24.6581 21.5513 25.6745 21.2429 26.7143 21.2429C28.1086 21.2429 29.4457 21.7968 30.4317 22.7827C31.4176 23.7686 31.9714 25.1058 31.9714 26.5001ZM26.7143 0.214355C12.1967 0.214355 0.428589 11.9825 0.428589 26.5001C0.428589 41.0177 12.1967 52.7858 26.7143 52.7858C41.2319 52.7858 53 41.0177 53 26.5001C53 11.9825 41.2306 0.214355 26.7143 0.214355ZM42.3911 33.0032C42.3148 34.6815 42.0481 35.8276 41.6578 36.8304C41.2528 37.8781 40.6333 38.8297 39.8391 39.6241C39.0449 40.4185 38.0935 41.0382 37.0459 41.4435C36.0418 41.8378 34.8957 42.1006 33.2174 42.1769C31.539 42.2531 30.9976 42.2715 26.7143 42.2715C22.431 42.2715 21.8948 42.2531 20.2125 42.1769C18.5302 42.1006 17.3868 41.8338 16.384 41.4435C15.336 41.0385 14.3843 40.4189 13.5899 39.6245C12.7954 38.8301 12.1758 37.8783 11.7708 36.8304C11.3766 35.8276 11.1137 34.6815 11.0388 33.0032C10.9639 31.3248 10.9429 30.7833 10.9429 26.5001C10.9429 22.2168 10.9613 21.6793 11.0388 19.997C11.1164 18.3147 11.3805 17.1726 11.7708 16.1698C12.1758 15.1218 12.7954 14.1701 13.5899 13.3756C14.3843 12.5812 15.336 11.9616 16.384 11.5566C17.3868 11.1624 18.5328 10.8995 20.2125 10.8233C21.8922 10.747 22.431 10.7286 26.7143 10.7286C30.9976 10.7286 31.5351 10.747 33.2174 10.8233C34.8997 10.8995 36.0418 11.1663 37.0459 11.5566C38.0935 11.9619 39.0449 12.5816 39.8391 13.376C40.6333 14.1704 41.2528 15.122 41.6578 16.1698C42.052 17.1726 42.3148 18.3186 42.3911 19.997C42.4673 21.6753 42.4857 22.2168 42.4857 26.5001C42.4857 30.7833 42.4673 31.3209 42.3911 33.0032Z" fill="#513E76"/>
</svg>
