<svg width="40" height="40" viewBox="0 0 40 40" fill="none" xmlns="http://www.w3.org/2000/svg">
<path d="M20 13.2812C23.6675 13.2812 26.6406 10.3081 26.6406 6.64062C26.6406 2.97311 23.6675 0 20 0C16.3325 0 13.3594 2.97311 13.3594 6.64062C13.3594 10.3081 16.3325 13.2812 20 13.2812Z" fill="#B68F64"/>
<path d="M24.8797 14.1808C23.4737 15.0939 21.7979 15.625 20.0001 15.625C18.2024 15.625 16.5265 15.0939 15.1205 14.1808C13.5662 14.7748 12.1251 15.6512 10.8721 16.7758L20.0001 20.1989L29.1282 16.7758C27.8751 15.6512 26.434 14.7748 24.8797 14.1808Z" fill="#B68F64"/>
<path d="M34.0625 24.2188H33.2812C32.6341 24.2188 32.1094 24.7434 32.1094 25.3906V28.5156C32.1094 29.1628 32.6341 29.6875 33.2812 29.6875H34.0625C35.5727 29.6875 36.7969 28.4633 36.7969 26.9531C36.7969 25.443 35.5727 24.2188 34.0625 24.2188Z" fill="#B68F64"/>
<path d="M6.8325 18.3028C6.51656 18.5218 6.32812 18.8816 6.32812 19.266V21.875H6.71875C8.65727 21.875 10.2344 23.4521 10.2344 25.3906V28.5156C10.2344 30.4541 8.65727 32.0312 6.71875 32.0312H6.32812V34.5004C6.32812 34.9889 6.63117 35.4262 7.08852 35.5977L18.8281 40V22.2625L7.91148 18.1687C7.55156 18.0337 7.14836 18.0837 6.8325 18.3028Z" fill="#B68F64"/>
<path d="M29.7656 28.5156V25.3906C29.7656 23.4521 31.3427 21.875 33.2812 21.875H33.6719V19.266C33.6719 18.8816 33.4834 18.5218 33.1675 18.3028C32.8516 18.0837 32.4483 18.0337 32.0885 18.1687L21.1719 22.2625V40L32.9115 35.5977C33.3688 35.4262 33.6719 34.9889 33.6719 34.5004V32.0312H33.2812C31.3427 32.0312 29.7656 30.4541 29.7656 28.5156Z" fill="#B68F64"/>
<path d="M7.89062 28.5156V25.3906C7.89062 24.7434 7.36594 24.2188 6.71875 24.2188H5.9375C4.42734 24.2188 3.20312 25.443 3.20312 26.9531C3.20312 28.4633 4.42734 29.6875 5.9375 29.6875H6.71875C7.36594 29.6875 7.89062 29.1628 7.89062 28.5156Z" fill="#B68F64"/>
</svg>
