<svg width="17" height="17" viewBox="0 0 17 17" fill="none" xmlns="http://www.w3.org/2000/svg">
<path d="M7.7915 1.41669C11.3105 1.41669 14.1665 4.27269 14.1665 7.79169C14.1665 11.3107 11.3105 14.1667 7.7915 14.1667C4.2725 14.1667 1.4165 11.3107 1.4165 7.79169C1.4165 4.27269 4.2725 1.41669 7.7915 1.41669ZM7.7915 12.75C10.5306 12.75 12.7498 10.5308 12.7498 7.79169C12.7498 5.05185 10.5306 2.83335 7.7915 2.83335C5.05167 2.83335 2.83317 5.05185 2.83317 7.79169C2.83317 10.5308 5.05167 12.75 7.7915 12.75ZM13.8017 12.8003L15.8056 14.8035L14.8033 15.8058L12.8001 13.8019L13.8017 12.8003Z" fill="#3F2A62"/>
</svg>
