<svg width="34" height="34" viewBox="0 0 34 34" fill="none" xmlns="http://www.w3.org/2000/svg">
<path d="M15.5833 2.83334C22.6213 2.83334 28.3333 8.54534 28.3333 15.5833C28.3333 22.6213 22.6213 28.3333 15.5833 28.3333C8.54531 28.3333 2.83331 22.6213 2.83331 15.5833C2.83331 8.54534 8.54531 2.83334 15.5833 2.83334ZM15.5833 25.5C21.0616 25.5 25.5 21.0616 25.5 15.5833C25.5 10.1037 21.0616 5.66668 15.5833 5.66668C10.1036 5.66668 5.66665 10.1037 5.66665 15.5833C5.66665 21.0616 10.1036 25.5 15.5833 25.5ZM27.6037 25.6006L31.6115 29.6069L29.6069 31.6115L25.6006 27.6038L27.6037 25.6006Z" fill="white"/>
</svg>
