<svg width="40" height="40" viewBox="0 0 40 40" fill="none" xmlns="http://www.w3.org/2000/svg">
<g clip-path="url(#clip0)">
<path d="M36.4648 18.9659V6.73827C36.4648 6.55499 36.4146 6.38726 36.3398 6.23288C36.3849 6.10796 36.4648 5.99773 36.4648 5.85937C36.4648 5.3364 36.1181 4.87632 35.6145 4.7321L19.2083 0.0446027C18.9977 -0.0149286 18.7757 -0.0149286 18.5652 0.0446027L2.15891 4.7321C1.65531 4.87632 1.30859 5.3364 1.30859 5.85937C1.30859 6.38234 1.65531 6.84242 2.15891 6.98663L8.33984 8.75257V10.1394C8.33984 11.4727 9.08031 12.6984 10.2259 13.2614C15.4787 15.8432 22.2925 15.842 27.5477 13.2626C28.6932 12.6995 29.4337 11.4738 29.4337 10.1394V8.75257L34.1212 7.41335V18.9659C32.7601 19.4512 31.7774 20.7398 31.7774 22.2656V24.6094C31.7774 25.2571 32.3016 25.7812 32.9493 25.7812H37.6368C38.2845 25.7812 38.8087 25.2571 38.8087 24.6094V22.2656C38.8086 20.7398 37.8259 19.4513 36.4648 18.9659Z" fill="#B68F64"/>
<path d="M28.4628 15.5223C25.5171 16.9699 22.1651 17.7344 18.7697 17.7344C15.3742 17.7344 12.0211 16.9687 9.07419 15.5211C8.78638 15.3796 8.54802 15.1699 8.29224 14.983C8.54255 19.201 10.8119 22.7801 14.0191 24.6138C14.0191 24.6138 15.6642 25.3911 16.1782 25.5371L16.1802 25.5333C17.0126 25.7706 17.8697 25.9376 18.7696 25.9376C19.5936 25.9376 20.7672 25.7731 21.94 25.3401C22.4803 25.1477 23.5163 24.6162 23.5163 24.6162C26.7254 22.7832 28.9964 19.203 29.247 14.9835C28.9905 15.1707 28.7515 15.3805 28.4628 15.5223Z" fill="#B68F64"/>
<path d="M18.7695 28.2813C17.8248 28.2813 16.9156 28.1355 16.0298 27.9217L18.7695 32.0313L21.4938 27.9256C20.6125 28.1369 19.7088 28.2813 18.7695 28.2813Z" fill="#B68F64"/>
<path d="M25.5152 26.1794C25.4945 26.1934 25.4712 26.203 25.4505 26.2169L24.4648 27.6953C24.4648 27.7498 19.9716 34.4702 19.9414 34.5155V40H35.1758C35.8235 40 36.3477 39.4759 36.3477 38.8281C36.3477 32.4286 31.6376 27.1755 25.5152 26.1794ZM28.1445 35.3125H25.8008C25.153 35.3125 24.6289 34.7884 24.6289 34.1406C24.6289 33.4929 25.153 32.9687 25.8008 32.9687H28.1445C28.7923 32.9687 29.3164 33.4929 29.3164 34.1406C29.3164 34.7884 28.7923 35.3125 28.1445 35.3125Z" fill="#B68F64"/>
<path d="M12.0673 26.2033C12.0482 26.1905 12.027 26.1817 12.0079 26.1688C5.89203 27.1717 1.19141 32.4326 1.19141 38.8281C1.19141 39.4759 1.71555 40 2.36328 40H17.5977V34.5155C12.2868 26.5355 13.3705 28.1647 12.0673 26.2033Z" fill="#B68F64"/>
</g>
<defs>
<clipPath id="clip0">
<rect width="40" height="40" fill="white"/>
</clipPath>
</defs>
</svg>
