<svg width="53" height="53" viewBox="0 0 53 53" fill="none" xmlns="http://www.w3.org/2000/svg">
<path fill-rule="evenodd" clip-rule="evenodd" d="M26.4285 0.214355C11.9109 0.214355 0.142822 11.9825 0.142822 26.5001C0.142822 41.0177 11.9109 52.7858 26.4285 52.7858C40.9461 52.7858 52.7142 41.0177 52.7142 26.5001C52.7142 11.9825 40.9448 0.214355 26.4285 0.214355ZM38.9642 17.308C38.888 18.3712 38.2794 22.0933 37.6722 26.1202L35.7731 38.0474C35.7731 38.0474 35.6207 39.7954 34.3274 40.099C33.0341 40.4026 30.9102 39.0357 30.5278 38.7308C30.2242 38.5034 24.8304 35.085 22.855 33.4132C22.3293 32.9572 21.7155 32.0464 22.9312 30.9818C25.6663 28.4754 28.9336 25.3606 30.9076 23.3852C31.8197 22.4731 32.7319 20.3466 28.9362 22.9292L18.2234 30.1472C18.2234 30.1472 17.0077 30.9069 14.7288 30.2221C12.4498 29.5374 9.79101 28.6266 9.79101 28.6266C9.79101 28.6266 7.96811 27.4871 11.083 26.2727L28.7837 18.9784C30.5304 18.2188 36.4565 15.7886 36.4565 15.7886C36.4565 15.7886 39.1915 14.7241 38.9642 17.308Z" fill="#513E76"/>
</svg>
