<svg width="53" height="53" viewBox="0 0 53 53" fill="none" xmlns="http://www.w3.org/2000/svg">
<path fill-rule="evenodd" clip-rule="evenodd" d="M36.779 16.1028C36.0798 15.4535 33.0635 13.5136 26.7707 13.486C26.7707 13.486 19.3187 12.9839 15.7018 16.3393C13.687 18.3738 13.0101 21.4006 12.9418 25.0938C12.8734 28.7869 12.6461 35.8249 19.2503 37.7017L19.2898 37.7122V43.988L24.2026 38.5416C28.7355 38.8452 32.3419 37.9278 32.7297 37.8003C33.6405 37.5006 38.5848 37.063 39.4233 30.1433C40.2842 23.0093 39.1 18.1399 36.779 16.1028ZM26.0583 18.1741C28.2322 18.1898 30.0748 18.9377 31.5402 20.3978C32.2787 21.1383 32.8469 22.0308 33.2054 23.0133C33.5913 24.1054 33.7844 25.2563 33.7758 26.4146C33.7769 26.4677 33.7569 26.5191 33.7202 26.5575C33.6835 26.596 33.6331 26.6183 33.58 26.6197C33.5269 26.619 33.4762 26.5973 33.439 26.5594C33.4019 26.5215 33.3812 26.4704 33.3815 26.4173C33.3899 25.3071 33.2058 24.2039 32.8374 23.1565C32.4968 22.2292 31.9587 21.387 31.2603 20.6883C30.5916 20.0136 29.7943 19.4799 28.9156 19.119C28.004 18.7605 27.0327 18.5777 26.0531 18.5802C26.0021 18.5761 25.9544 18.5529 25.9197 18.5153C25.885 18.4776 25.8657 18.4283 25.8657 18.3771C25.8657 18.3259 25.885 18.2766 25.9197 18.239C25.9544 18.2014 26.0021 18.1782 26.0531 18.1741H26.0583ZM30.1773 22.1577C29.767 21.6989 29.2639 21.3324 28.7014 21.0826C28.0727 20.8131 27.4022 20.6543 26.7194 20.6134C26.6663 20.6084 26.6172 20.5827 26.5828 20.5419C26.5484 20.5011 26.5314 20.4484 26.5354 20.3952C26.5369 20.369 26.5436 20.3433 26.5551 20.3196C26.5665 20.2959 26.5826 20.2748 26.6022 20.2573C26.6219 20.2398 26.6448 20.2264 26.6696 20.2179C26.6945 20.2093 26.7208 20.2057 26.747 20.2073C28.3242 20.3269 29.5833 20.8894 30.4704 21.883C31.3576 22.8766 31.7991 24.1357 31.7663 25.6156C31.7653 25.6679 31.744 25.7178 31.707 25.7548C31.67 25.7918 31.6201 25.813 31.5678 25.814C31.5146 25.812 31.4643 25.789 31.4279 25.7501C31.3915 25.7113 31.3719 25.6596 31.3733 25.6063C31.3996 24.2342 30.9988 23.075 30.1773 22.1629V22.1577ZM29.8014 24.9269C29.804 24.9801 29.7856 25.0321 29.7502 25.0719C29.7148 25.1117 29.6653 25.1361 29.6122 25.1398H29.603C29.5514 25.1392 29.5021 25.1188 29.4652 25.0828C29.4283 25.0468 29.4065 24.9981 29.4045 24.9466C29.3703 24.2329 29.1771 23.6849 28.8328 23.3195C28.4884 22.9541 27.9746 22.7544 27.3043 22.7176C27.2528 22.7117 27.2054 22.6864 27.1719 22.6468C27.1383 22.6073 27.1212 22.5564 27.1239 22.5046C27.1265 22.4528 27.1489 22.404 27.1863 22.3681C27.2237 22.3322 27.2734 22.3119 27.3253 22.3114C28.0994 22.3535 28.7014 22.598 29.118 23.0369C29.5346 23.4759 29.762 24.1107 29.8014 24.9229V24.9269ZM33.9979 32.8257V32.8389C33.6432 33.4692 33.1912 34.0396 32.6587 34.529L32.6455 34.5382C31.9122 35.1652 31.1998 35.3623 30.5072 35.1336C27.851 34.0611 25.1567 32.5129 22.6662 29.929C20.1493 27.3123 18.4605 24.3736 17.5865 21.6175L17.4971 21.2153C17.3275 20.2138 17.9518 19.5435 19.6762 18.3765L19.7064 18.3541C19.9479 18.2017 20.2324 18.1321 20.517 18.1558C20.8015 18.1796 21.0706 18.2953 21.2835 18.4856C21.6384 18.7379 22.6399 20.0627 22.6399 20.0627C22.8357 20.3624 24.217 22.0604 23.895 22.874C23.7873 23.3432 22.975 23.8347 22.5453 24.2395L22.5111 24.2684C22.4141 24.4078 22.3465 24.5654 22.3124 24.7317C22.2783 24.898 22.2784 25.0695 22.3126 25.2357L22.3284 25.308C22.5544 26.4068 23.1906 27.4626 24.2367 28.4754C25.2711 29.4782 26.2831 30.0736 27.2346 30.3154C27.3661 30.343 27.8773 30.414 28.2072 29.9934L28.8512 29.1654C29.1614 28.7541 29.9118 28.4912 30.6465 28.9026C31.1978 29.226 31.7326 29.5769 32.2486 29.954C32.7362 30.3207 33.7338 31.171 33.7364 31.1737C34.2122 31.5864 34.3212 32.1896 33.9979 32.8257ZM26.2857 0.214355C11.7681 0.214355 0 11.9825 0 26.5001C0 41.0177 11.7681 52.7858 26.2857 52.7858C40.8033 52.7858 52.5714 41.0177 52.5714 26.5001C52.5714 11.9825 40.802 0.214355 26.2857 0.214355ZM41.7365 30.761C40.7455 39.041 34.6472 39.8466 33.5695 40.2054C33.1042 40.3592 28.9997 41.4093 23.6611 40.952C23.0723 41.6525 22.2916 42.5698 21.7251 43.1941C20.6947 44.331 20.0599 45.3863 18.9796 45.0433C18.0885 44.7607 18.1371 43.3716 18.1371 43.3716V39.9426C10.3329 37.6938 10.4486 29.4073 10.5366 24.9847C10.6247 20.5621 11.4566 16.9952 13.8434 14.5572C18.1201 10.5407 26.8929 11.0835 26.8929 11.0835C34.3318 11.1163 37.67 13.599 38.4994 14.3771C41.241 16.8138 42.7603 22.2168 41.7365 30.761Z" fill="#513E76"/>
</svg>
